<svg
  width="256"
  height="256"
  viewBox="0 0 256 256"
  fill="none"
  xmlns="http://www.w3.org/2000/svg"
>
  <path
    d="M89.223 200.712C83.134 199.16 77.0945 196.839 71.203 193.673L41.496 211.027L23.8175 193.348L39.8785 163.342C36.7616 157.866 34.3153 152.034 32.5925 145.973L0 137.12V112.075L32.4185 102.553C34.0825 96.5095 36.4635 90.6355 39.5685 85.079L23.0805 55.601L40.76 37.9225L70.474 54.6135C76.1425 51.4935 81.956 49.155 87.82 47.542L96.9885 14.105H122.034L131.469 48.243C136.974 49.9303 142.283 52.1998 147.307 55.013L178.508 37.1855L196.186 54.8645L178.449 86.361C183 94.726 186.099 104.092 187.317 114.221H156.03C149.732 83.032 113.716 65.3205 84.515 82.1555C52.398 100.671 52.398 147.211 84.515 165.727C93.2965 170.789 102.694 172.723 111.715 172.11V211.851H92.43L89.223 200.712Z"
    fill="#32C754"
  />
  <g clip-path="url(#clip0_4056_37)">
    <path
      d="M186.435 253.092C201.201 198.947 200.773 198.701 211.444 160.095L214.01 161.618C215.407 162.438 216.548 161.763 216.548 160.116V141.7C219.383 131.53 221.597 123.666 222.252 121.312H233.811L253.019 139.554L240.403 150.735L249.944 161.317L187.071 253.093C186.767 253.612 186.338 253.494 186.436 253.093L186.435 253.092Z"
      fill="#32C754"
    />
    <path
      d="M193.303 136.383C193.877 136.383 194.336 136.705 194.336 137.11V146.543C194.336 146.937 193.873 147.26 193.303 147.26H177.778C177.204 147.26 176.742 146.938 176.742 146.54V137.103C176.742 136.705 177.204 136.376 177.774 136.376L193.303 136.383ZM212.473 125.936L195.389 136.051C195.585 136.362 195.706 136.719 195.706 137.107V146.546C195.706 147.031 195.517 147.474 195.213 147.827L212.47 158.045C213.645 158.745 214.61 158.174 214.61 156.782V127.203C214.61 125.808 213.652 125.24 212.474 125.936H212.473ZM175.368 146.546V137.103C175.368 136.715 175.489 136.359 175.685 136.051L158.601 125.929C157.426 125.237 156.461 125.805 156.461 127.196V156.775C156.461 158.167 157.426 158.738 158.604 158.039L175.858 147.82C175.554 147.464 175.372 147.024 175.372 146.539L175.368 146.546H175.368Z"
      fill="#32C754"
    />
    <path
      d="M183.964 253.092H184.598C169.836 198.947 170.261 198.701 159.589 160.095L157.024 161.618C155.63 162.438 154.486 161.763 154.486 160.116V141.7C151.651 131.534 149.437 123.666 148.782 121.312H137.226L118.016 139.554L130.628 150.735L121.087 161.32L183.964 253.092ZM189.711 162.182C189.711 164.824 187.623 166.966 185.047 166.966C182.471 166.966 180.383 164.824 180.383 162.182C180.383 159.54 182.471 157.398 185.047 157.398C187.623 157.398 189.711 159.54 189.711 162.182ZM189.711 190.618C189.711 193.26 187.623 195.402 185.047 195.402C182.471 195.402 180.383 193.26 180.383 190.618C180.383 187.976 182.471 185.835 185.047 185.835C187.623 185.835 189.711 187.976 189.711 190.618ZM189.711 219.062C189.711 221.704 187.623 223.846 185.047 223.846C182.471 223.846 180.383 221.704 180.383 219.062C180.383 216.42 182.471 214.278 185.047 214.278C187.623 214.278 189.711 216.42 189.711 219.062Z"
      fill="#32C754"
    />
  </g>
  <defs>
    <clipPath id="clip0_4056_37">
      <rect
        width="135"
        height="135"
        fill="white"
        transform="translate(118 121)"
      />
    </clipPath>
  </defs>
</svg>
