<svg width="256" height="256" viewBox="0 0 256 256" fill="none" xmlns="http://www.w3.org/2000/svg">
<circle cx="128" cy="128" r="122" fill="black"/>
<path d="M49 134.847L108.75 101L155.311 180.608L195.837 157.362L207 177.861L146.766 212L123.543 171.673L83.579 194.97L71.58 175.023L112.207 151.897L100.678 131.531L60.4312 154.856L49 134.847Z" fill="white"/>
<path d="M142.161 62.7309C143.207 62.7309 144.043 63.2917 144.043 63.9976V80.4349C144.043 81.123 143.2 81.6828 142.161 81.6828H113.86C112.814 81.6828 111.971 81.122 111.971 80.4293V63.9844C111.971 63.2907 112.814 62.7177 113.853 62.7177H142.154L142.161 62.7309ZM177.106 44.5254L145.962 62.1512C146.319 62.6941 146.541 63.3152 146.541 63.991V80.4406C146.541 81.2851 146.196 82.057 145.642 82.6724L177.099 100.479C179.241 101.698 181 100.703 181 98.2775V46.7337C181 44.302 179.252 43.3133 177.106 44.5254ZM109.466 80.4406V63.9844C109.466 63.3096 109.687 62.6885 110.045 62.1512L78.901 44.5141C76.7602 43.3077 75 44.2973 75 46.7214V98.2653C75 100.69 76.7592 101.686 78.9068 100.467L110.358 82.6602C109.804 82.0391 109.473 81.2728 109.473 80.4283L109.466 80.4406Z" fill="white"/>
</svg>
